<svg width="67" height="62" viewBox="0 0 67 62" fill="none" xmlns="http://www.w3.org/2000/svg">
<path d="M0 15C0 6.71573 6.71573 0 15 0H52C60.2843 0 67 6.71573 67 15V37C67 50.8071 55.8071 62 42 62H0V15Z" fill="black" fill-opacity="0.71"/>
<path d="M47.482 34.1089L49.9441 23.1401C50.2587 21.7385 49.208 20.375 47.7495 20.375H28.1103L27.7949 18.814C27.5834 17.7667 26.6681 17 25.5901 17H20.25C18.9957 17 18 18.0261 18 19.2656V20.1094C18 21.3489 18.9957 22.375 20.25 22.375H23.0716L26.4413 39.055C25.6093 39.7802 25.0833 40.8525 25.0833 42.0469C25.0833 44.2184 26.8252 46 29 46C31.1748 46 32.9167 44.2184 32.9167 42.0469C32.9167 41.662 32.862 41.2897 32.76 40.9375H40.24C40.1381 41.2897 40.0833 41.662 40.0833 42.0469C40.0833 44.2184 41.8252 46 44 46C46.1748 46 47.9167 44.2184 47.9167 42.0469C47.9167 40.7791 47.3245 39.6479 46.4012 38.9239L46.535 38.3276C46.7594 37.3279 46.2891 36.3475 45.4717 35.8675C46.4505 35.7873 47.2654 35.0738 47.482 34.1089C47.482 34.1089 47.482 34.1089 47.482 34.1089Z" fill="black" fill-opacity="0.71" stroke="white" stroke-width="2"/>
</svg>
